# File created by Blade
# Date/Time:  Tue Jan 27 18:12:42 2015
# Frame Rate: 120.000 fps
#------------------------------------------------------
:FULLY-SPECIFIED
:DEGREES
2235
root -1.315982 31.805629 -6.511649 7.365038 12.410591 3.816741
Spine -7.522036 -10.489203 -3.582366
Head 12.319280 -25.396166 3.799062
LeftShoulder -13.837601 18.054264 3.401992
LeftArm 26.905488 40.504250 -66.780871
LeftForeArm -2.321973 -0.000000 16.353965
LeftHand -10.647732 0.000000 -4.301939
LeftHandThumb1 -26.253704 0.000000 33.147579
RightShoulder -8.837525 5.143958 -15.533078
RightArm -17.888724 57.915462 43.679961
RightForeArm 19.879095 -0.000000 107.566952
RightHand -13.741566 -0.000000 -6.619769
RightHandThumb1 -24.326973 -0.000000 -32.862282
LeftUpLeg -3.454055 -4.067366 -1.122111
LeftLeg 1.276172 -0.000000 -0.000000
LeftFoot -17.077682 14.634358 -23.933946
LeftToeBase 8.610366 -0.000000 -0.000000
RightUpLeg 0.742251 -7.194065 -3.799715
RightLeg -2.922222 -0.000000 0.000000
RightFoot -16.914876 -15.928403 10.607866
RightToeBase 5.303835 -0.000000 -0.000000
2236
root -1.319230 31.805688 -6.511000 7.366035 12.380408 3.811840
Spine -7.520866 -10.501709 -3.586879
Head 12.321067 -25.363875 3.772003
LeftShoulder -13.835041 18.050086 3.396623
LeftArm 26.940177 40.472619 -66.773363
LeftForeArm -2.275878 -0.000000 16.412632
LeftHand -10.624243 -0.000000 -4.259856
LeftHandThumb1 -26.253704 0.000000 33.147579
RightShoulder -8.837457 5.079278 -15.541135
RightArm -17.719210 57.955983 43.868299
RightForeArm 19.834808 -0.000000 107.589767
RightHand -13.745609 -0.000000 -6.575064
RightHandThumb1 -24.326973 -0.000000 -32.862282
LeftUpLeg -3.452254 -4.063366 -1.117046
LeftLeg 1.275960 -0.000000 -0.000000
LeftFoot -17.118971 14.650090 -24.027376
LeftToeBase 8.646547 -0.000000 -0.000000
RightUpLeg 0.736486 -7.180358 -3.792361
RightLeg -2.927235 -0.000000 0.000000
RightFoot -16.902170 -15.913544 10.597922
RightToeBase 5.284430 -0.000000 -0.000000
2237
root -1.322667 31.805267 -6.509473 7.368528 12.353925 3.803152
Spine -7.522343 -10.499217 -3.595664
Head 12.321587 -25.349662 3.769119
LeftShoulder -13.817121 18.049848 3.411245
LeftArm 26.969501 40.468950 -66.772863
LeftForeArm -2.251848 0.000000 16.502681
LeftHand -10.875492 -0.000000 -4.962499
LeftHandThumb1 -26.253704 0.000000 33.147579
RightShoulder -8.824967 5.058815 -15.541152
RightArm -17.690101 57.974540 43.912395
RightForeArm 19.828376 -0.000000 107.617347
RightHand -13.754729 0.000000 -6.724985
RightHandThumb1 -24.326973 -0.000000 -32.862282
LeftUpLeg -3.453426 -4.040090 -1.102377
LeftLeg 1.273389 -0.000000 -0.000000
LeftFoot -17.109359 14.654119 -23.973899
LeftToeBase 8.638583 -0.000000 -0.000000
RightUpLeg 0.727325 -7.172930 -3.779405
RightLeg -2.925241 -0.000000 0.000000
RightFoot -16.899625 -15.903670 10.591283
RightToeBase 5.264011 -0.000000 -0.000000
2238
root -1.325599 31.805207 -6.508551 7.376122 12.326061 3.797738
Spine -7.526897 -10.503993 -3.606296
Head 12.314899 -25.331510 3.770302
LeftShoulder -13.827568 18.047233 3.402278
LeftArm 27.018384 40.453819 -66.754789
LeftForeArm -2.243674 -0.000000 16.578760
LeftHand -10.862048 -0.000000 -4.812772
LeftHandThumb1 -26.253704 0.000000 33.147579
RightShoulder -8.797759 5.103828 -15.546881
RightArm -17.779250 57.950714 43.874694
RightForeArm 19.799476 -0.000000 107.638266
RightHand -13.753355 -0.000000 -6.687758
RightHandThumb1 -24.326973 -0.000000 -32.862282
LeftUpLeg -3.456996 -4.031943 -1.092725
LeftLeg 1.267806 -0.000000 -0.000000
LeftFoot -17.108383 14.668602 -23.977694
LeftToeBase 8.601709 -0.000000 -0.000000
RightUpLeg 0.713114 -7.157727 -3.769194
RightLeg -2.924559 -0.000000 0.000000
RightFoot -16.897272 -15.890779 10.576554
RightToeBase 5.295146 -0.000000 -0.000000
2239
root -1.329148 31.804673 -6.507095 7.381734 12.310847 3.785056
Spine -7.521223 -10.510819 -3.617638
Head 12.288464 -25.323489 3.805186
LeftShoulder -13.846091 18.025612 3.404988
LeftArm 27.066616 40.461287 -66.740370
LeftForeArm -2.244464 -0.000000 16.629086
LeftHand -10.801644 -0.000000 -4.711539
LeftHandThumb1 -26.253704 0.000000 33.147579
RightShoulder -8.781792 5.204165 -15.542041
RightArm -17.964037 57.889998 43.724141
RightForeArm 19.828932 0.000000 107.644497
RightHand -13.761194 -0.000000 -6.687397
RightHandThumb1 -24.326973 -0.000000 -32.862282
LeftUpLeg -3.462933 -4.029235 -1.074658
LeftLeg 1.271753 -0.000000 -0.000000
LeftFoot -17.130404 14.681084 -23.974853
LeftToeBase 8.581613 -0.000000 -0.000000
RightUpLeg 0.702027 -7.145662 -3.751745
RightLeg -2.922130 -0.000000 0.000000
RightFoot -16.905255 -15.874853 10.604182
RightToeBase 5.294582 -0.000000 -0.000000
2240
root -1.331030 31.804618 -6.506263 7.385119 12.304528 3.783295
Spine -7.523677 -10.531322 -3.619506
Head 12.300000 -25.307748 3.764958
LeftShoulder -13.854916 18.021841 3.381118
LeftArm 27.112838 40.425872 -66.732235
LeftForeArm -2.200231 -0.000000 16.679992
LeftHand -10.807489 -0.000000 -4.729581
LeftHandThumb1 -26.253704 0.000000 33.147579
RightShoulder -8.786450 5.124606 -15.561230
RightArm -17.818545 57.950164 43.918033
RightForeArm 19.784895 0.000000 107.651044
RightHand -13.807035 -0.000000 -6.685158
RightHandThumb1 -24.326973 -0.000000 -32.862282
LeftUpLeg -3.468718 -4.035801 -1.068740
LeftLeg 1.277486 -0.000000 -0.000000
LeftFoot -17.132490 14.692236 -23.982359
LeftToeBase 8.621942 -0.000000 -0.000000
RightUpLeg 0.695859 -7.155718 -3.745976
RightLeg -2.916401 -0.000000 0.000000
RightFoot -16.898142 -15.863014 10.578763
RightToeBase 5.274836 -0.000000 -0.000000
2241
root -1.333541 31.804726 -6.504840 7.388222 12.290799 3.772793
Spine -7.519156 -10.519935 -3.633942
Head 12.287155 -25.324551 3.796632
LeftShoulder -13.857883 18.008754 3.375342
LeftArm 27.150368 40.398836 -66.737529
LeftForeArm -2.191659 0.000000 16.749319
LeftHand -10.781370 -0.000000 -4.762058
LeftHandThumb1 -26.253704 0.000000 33.147579
RightShoulder -8.783006 5.187317 -15.544096
RightArm -17.950045 57.926329 43.796383
RightForeArm 19.823485 -0.000000 107.635925
RightHand -13.798300 -0.000000 -6.695126
RightHandThumb1 -24.326973 -0.000000 -32.862282
LeftUpLeg -3.471334 -4.033631 -1.052892
LeftLeg 1.280104 -0.000000 -0.000000
LeftFoot -17.149796 14.688252 -23.994740
LeftToeBase 8.625348 -0.000000 -0.000000
RightUpLeg 0.686777 -7.174120 -3.732832
RightLeg -2.910825 -0.000000 0.000000
RightFoot -16.897730 -15.814915 10.586772
RightToeBase 5.299586 -0.000000 -0.000000
2242
root -1.335003 31.804391 -6.502854 7.394963 12.274020 3.776133
Spine -7.520305 -10.525084 -3.649682
Head 12.283179 -25.309587 3.796193
LeftShoulder -13.882136 17.984104 3.347750
LeftArm 27.171843 40.380217 -66.733629
LeftForeArm -2.213326 -0.000000 16.811791
LeftHand -10.642008 -0.000000 -4.076003
LeftHandThumb1 -26.253704 0.000000 33.147579
RightShoulder -8.780730 5.213189 -15.555916
RightArm -17.995811 57.922287 43.800231
RightForeArm 19.822869 -0.000000 107.625208
RightHand -13.785074 -0.000000 -6.667400
RightHandThumb1 -24.326973 -0.000000 -32.862282
LeftUpLeg -3.475479 -4.026764 -1.055311
LeftLeg 1.285578 -0.000000 -0.000000
LeftFoot -17.165553 14.681913 -24.052555
LeftToeBase 8.617850 -0.000000 -0.000000
RightUpLeg 0.684875 -7.142812 -3.734005
RightLeg -2.919326 -0.000000 0.000000
RightFoot -16.893958 -15.838241 10.565749
RightToeBase 5.285584 -0.000000 -0.000000
2243
root -1.338288 31.804486 -6.500941 7.395067 12.267101 3.767895
Spine -7.516065 -10.535078 -3.657818
Head 12.311103 -25.329742 3.748838
LeftShoulder -13.892860 17.973166 3.331874
LeftArm 27.190340 40.362409 -66.738943
LeftForeArm -2.232414 -0.000000 16.883801
LeftHand -10.643050 0.000000 -3.917113
LeftHandThumb1 -26.253704 0.000000 33.147579
RightShoulder -8.794767 5.138005 -15.554357
RightArm -17.866725 57.986994 43.952010
RightForeArm 19.838820 -0.000000 107.601640
RightHand -13.767101 -0.000000 -6.676848
RightHandThumb1 -24.326973 -0.000000 -32.862282
LeftUpLeg -3.472500 -4.037580 -1.041644
LeftLeg 1.282075 -0.000000 -0.000000
LeftFoot -17.155061 14.733629 -23.959760
LeftToeBase 8.567677 -0.000000 -0.000000
RightUpLeg 0.673988 -7.170098 -3.719226
RightLeg -2.900053 -0.000000 0.000000
RightFoot -16.897437 -15.813571 10.561733
RightToeBase 5.290922 -0.000000 -0.000000
2244
root -1.340199 31.804130 -6.499442 7.400865 12.261513 3.765365
Spine -7.510787 -10.521491 -3.682010
Head 12.303344 -25.350031 3.779340
LeftShoulder -13.893035 17.956028 3.333339
LeftArm 27.200700 40.345662 -66.760145
LeftForeArm -2.134276 -0.000000 16.966874
LeftHand -10.589774 0.000000 -3.909958
LeftHandThumb1 -26.253704 0.000000 33.147579
RightShoulder -8.796004 5.218218 -15.540488
RightArm -18.056999 57.936094 43.778574
RightForeArm 19.920553 -0.000000 107.576987
RightHand -13.762491 -0.000000 -6.719546
RightHandThumb1 -24.326973 -0.000000 -32.862282
LeftUpLeg -3.480218 -4.038610 -1.034649
LeftLeg 1.290354 -0.000000 -0.000000
LeftFoot -17.168707 14.716443 -24.011537
LeftToeBase 8.559678 -0.000000 -0.000000
RightUpLeg 0.671261 -7.150280 -3.713890
RightLeg -2.906684 -0.000000 0.000000
RightFoot -16.899321 -15.818553 10.561403
RightToeBase 5.273065 -0.000000 -0.000000
2245
root -1.341532 31.804163 -6.498014 7.400659 12.261637 3.761714
Spine -7.510287 -10.529191 -3.682596
Head 12.314108 -25.319892 3.752264
LeftShoulder -13.892310 17.937627 3.314111
LeftArm 27.206564 40.332258 -66.779371
LeftForeArm -2.085114 -0.000000 17.043252
LeftHand -10.657197 -0.000000 -3.935356
LeftHandThumb1 -26.253704 0.000000 33.147579
RightShoulder -8.808481 5.166352 -15.557352
RightArm -17.981062 57.966477 43.901235
RightForeArm 19.936609 -0.000000 107.556324
RightHand -13.798951 -0.000000 -6.690756
RightHandThumb1 -24.326973 -0.000000 -32.862282
LeftUpLeg -3.486183 -4.023600 -1.028577
LeftLeg 1.307192 -0.000000 -0.000000
LeftFoot -17.176614 14.691187 -24.029465
LeftToeBase 8.559059 -0.000000 -0.000000
RightUpLeg 0.667114 -7.151460 -3.707625
RightLeg -2.894812 -0.000000 0.000000
RightFoot -16.907471 -15.804337 10.583463
RightToeBase 5.272988 -0.000000 -0.000000
2246
root -1.342383 31.803727 -6.495509 7.404737 12.265223 3.759854
Spine -7.505777 -10.534248 -3.701130
Head 12.299692 -25.311723 3.786381
LeftShoulder -13.904758 17.909207 3.319948
LeftArm 27.213246 40.343176 -66.816588
LeftForeArm -2.092254 -0.000000 17.090527
LeftHand -10.700234 0.000000 -3.928744
LeftHandThumb1 -26.253704 0.000000 33.147579
RightShoulder -8.803791 5.235748 -15.541338
RightArm -18.139105 57.925461 43.735180
RightForeArm 20.030874 -0.000000 107.515754
RightHand -13.782158 -0.000000 -6.728045
RightHandThumb1 -24.326973 -0.000000 -32.862282
LeftUpLeg -3.481848 -4.050786 -1.023258
LeftLeg 1.293555 -0.000000 -0.000000
LeftFoot -17.178956 14.726348 -24.019271
LeftToeBase 8.545866 -0.000000 -0.000000
RightUpLeg 0.659605 -7.186157 -3.701928
RightLeg -2.878613 -0.000000 0.000000
RightFoot -16.911643 -15.785927 10.551307
RightToeBase 5.265148 -0.000000 -0.000000
2247
root -1.344423 31.803885 -6.493648 7.407052 12.265657 3.756628
Spine -7.510071 -10.546309 -3.700616
Head 12.318745 -25.290465 3.745751
LeftShoulder -13.901275 17.906111 3.302423
LeftArm 27.228084 40.351444 -66.821849
LeftForeArm -2.175204 -0.000000 17.153353
LeftHand -10.702067 -0.000000 -3.859597
LeftHandThumb1 -26.253704 0.000000 33.147579
RightShoulder -8.807778 5.171955 -15.559149
RightArm -18.060566 57.946310 43.844776
RightForeArm 20.070775 -0.000000 107.483239
RightHand -13.770686 -0.000000 -6.772403
RightHandThumb1 -24.326973 -0.000000 -32.862282
LeftUpLeg -3.487087 -4.041683 -1.016462
LeftLeg 1.303910 -0.000000 -0.000000
LeftFoot -17.173014 14.714325 -24.015793
LeftToeBase 8.556148 -0.000000 -0.000000
RightUpLeg 0.665394 -7.138792 -3.696630
RightLeg -2.890256 -0.000000 0.000000
RightFoot -16.911146 -15.812206 10.571761
RightToeBase 5.260864 -0.000000 -0.000000
